<?xml version="1.0" encoding="UTF-8"?>
<svg xmlns="http://www.w3.org/2000/svg" xmlns:xlink="http://www.w3.org/1999/xlink" width="14px" height="14px" viewBox="0 0 14 14" version="1.1">
<g id="surface1">
<path style=" stroke:none;fill-rule:nonzero;fill:rgb(0%,0%,0%);fill-opacity:1;" d="M 6.402344 1.34375 C 4.457031 1.554688 2.753906 2.746094 1.898438 4.496094 C 1.429688 5.453125 1.234375 6.515625 1.339844 7.550781 C 1.539062 9.515625 2.734375 11.238281 4.5 12.101562 C 5.847656 12.761719 7.355469 12.867188 8.777344 12.398438 C 11.609375 11.464844 13.242188 8.496094 12.511719 5.601562 C 12.355469 4.992188 12.070312 4.351562 11.71875 3.832031 L 11.515625 3.527344 L 11.808594 3.527344 C 12.058594 3.527344 12.117188 3.519531 12.222656 3.464844 C 12.464844 3.34375 12.535156 3.039062 12.375 2.828125 C 12.238281 2.652344 12.21875 2.648438 11.160156 2.65625 C 9.839844 2.667969 9.945312 2.558594 9.949219 3.921875 C 9.957031 4.882812 9.957031 4.882812 10.023438 4.980469 C 10.109375 5.113281 10.25 5.179688 10.421875 5.164062 C 10.578125 5.144531 10.679688 5.082031 10.761719 4.945312 C 10.804688 4.871094 10.816406 4.789062 10.828125 4.46875 L 10.84375 4.089844 L 11.003906 4.332031 C 12.171875 6.09375 12.058594 8.40625 10.71875 10.046875 C 8.898438 12.273438 5.539062 12.410156 3.542969 10.332031 C 3.160156 9.9375 2.941406 9.625 2.695312 9.140625 C 1.855469 7.464844 2.078125 5.429688 3.269531 3.960938 C 3.707031 3.425781 4.394531 2.894531 4.992188 2.628906 C 5.582031 2.363281 6.121094 2.234375 6.816406 2.191406 C 7.191406 2.167969 7.246094 2.144531 7.367188 1.984375 C 7.445312 1.878906 7.445312 1.621094 7.367188 1.515625 C 7.246094 1.351562 7.183594 1.324219 6.894531 1.320312 C 6.75 1.320312 6.527344 1.328125 6.402344 1.34375 Z M 6.402344 1.34375 "/>
<path style=" stroke:none;fill-rule:nonzero;fill:rgb(0%,0%,0%);fill-opacity:1;" d="M 6.769531 3.660156 C 6.359375 3.730469 6.085938 3.867188 5.78125 4.167969 C 5.601562 4.347656 5.539062 4.433594 5.445312 4.621094 C 5.1875 5.164062 5.1875 5.710938 5.445312 6.234375 C 5.664062 6.683594 6.15625 7.074219 6.625 7.167969 L 6.796875 7.203125 L 6.453125 7.238281 C 5.773438 7.304688 5.152344 7.484375 4.546875 7.777344 C 4.230469 7.933594 4.171875 7.972656 4.085938 8.089844 C 3.953125 8.273438 3.929688 8.410156 3.941406 9.007812 C 3.953125 9.527344 3.953125 9.53125 4.039062 9.710938 C 4.195312 10.046875 4.476562 10.269531 4.824219 10.332031 C 5.046875 10.375 8.953125 10.375 9.175781 10.332031 C 9.523438 10.269531 9.804688 10.046875 9.960938 9.710938 L 10.050781 9.53125 L 10.058594 8.992188 C 10.066406 8.398438 10.054688 8.304688 9.917969 8.101562 C 9.839844 7.984375 9.792969 7.953125 9.476562 7.789062 C 8.878906 7.492188 8.238281 7.304688 7.546875 7.238281 L 7.207031 7.203125 L 7.375 7.167969 C 7.84375 7.074219 8.335938 6.683594 8.554688 6.234375 C 8.808594 5.714844 8.808594 5.15625 8.554688 4.625 C 8.347656 4.195312 7.898438 3.824219 7.453125 3.707031 C 7.238281 3.65625 6.941406 3.632812 6.769531 3.660156 Z M 6.769531 3.660156 "/>
</g>
</svg>
